P3
129 13
255
16 17 20 193 196 196 193 196 196 193 196 196 193 196 196 193 196 196 193 196 196 193 196 196 16 17 20 193 196 196 193 196 196 193 196 196 193 196 196 193 196 196 193 196 196 193 196 196 16 17 20 200 98 15 200 98 15 200 98 15 200 98 15 200 98 15 200 98 15 200 98 15 16 17 20 200 98 15 200 98 15 200 98 15 200 98 15 200 98 15 200 98 15 200 98 15 16 17 20 157 56 148 157 56 148 157 56 148 157 56 148 157 56 148 157 56 148 157 56 148 16 17 20 157 56 148 157 56 148 157 56 148 157 56 148 157 56 148 157 56 148 157 56 148 16 17 20 48 145 180 48 145 180 48 145 180 48 145 180 48 145 180 48 145 180 48 145 180 16 17 20 48 145 180 48 145 180 48 145 180 48 145 180 48 145 180 48 145 180 48 145 180 16 17 20 206 165 32 206 165 32 206 165 32 206 165 32 206 165 32 206 165 32 206 165 32 16 17 20 206 165 32 206 165 32 206 165 32 206 165 32 206 165 32 206 165 32 206 165 32 16 17 20 93 153 20 93 153 20 93 153 20 93 153 20 93 153 20 93 153 20 93 153 20 16 17 20 93 153 20 93 153 20 93 153 20 93 153 20 93 153 20 93 153 20 93 153 20 16 17 20 197 117 143 197 117 143 197 117 143 197 117 143 197 117 143 197 117 143 197 117 143 16 17 20 197 117 143 197 117 143 197 117 143 197 117 143 197 117 143 197 117 143 197 117 143 16 17 20 51 56 58 51 56 58 51 56 58 51 56 58 51 56 58 51 56 58 51 56 58 16 17 20 51 56 58 51 56 58 51 56 58 51 56 58 51 56 58 51 56 58 51 56 58 16 17 20 
16 17 20 137 166 212 137 166 212 137 166 212 137 166 212 137 166 212 137 166 212 137 166 212 16 17 20 137 166 212 137 166 212 137 166 212 137 166 212 137 166 212 137 166 212 137 166 212 51 56 58 137 166 212 137 166 212 137 166 212 137 166 212 137 166 212 137 166 212 137 166 212 16 17 20 137 166 212 137 166 212 137 166 212 137 166 212 137 166 212 137 166 212 137 166 212 51 56 58 137 166 212 137 166 212 137 166 212 137 166 212 137 166 212 137 166 212 137 166 212 16 17 20 137 166 212 137 166 212 137 166 212 137 166 212 137 166 212 137 166 212 137 166 212 51 56 58 137 166 212 137 166 212 137 166 212 137 166 212 137 166 212 137 166 212 137 166 212 16 17 20 137 166 212 137 166 212 137 166 212 137 166 212 137 166 212 137 166 212 137 166 212 51 56 58 137 166 212 137 166 212 137 166 212 137 166 212 137 166 212 137 166 212 137 166 212 16 17 20 137 166 212 137 166 212 137 166 212 137 166 212 137 166 212 137 166 212 137 166 212 51 56 58 137 166 212 137 166 212 137 166 212 137 166 212 137 166 212 137 166 212 137 166 212 16 17 20 137 166 212 137 166 212 137 166 212 137 166 212 137 166 212 137 166 212 137 166 212 51 56 58 137 166 212 137 166 212 137 166 212 137 166 212 137 166 212 137 166 212 137 166 212 16 17 20 137 166 212 137 166 212 137 166 212 137 166 212 137 166 212 137 166 212 137 166 212 51 56 58 137 166 212 137 166 212 137 166 212 137 166 212 137 166 212 137 166 212 137 166 212 16 17 20 100 128 176 137 166 212 137 166 212 137 166 212 137 166 212 137 166 212 137 166 212 16 17 20 
16 17 20 137 166 212 137 166 212 137 166 212 137 166 212 137 166 212 137 166 212 137 166 212 16 17 20 137 166 212 137 166 212 137 166 212 137 166 212 137 166 212 137 166 212 137 166 212 16 17 20 137 166 212 137 166 212 137 166 212 137 166 212 137 166 212 137 166 212 137 166 212 16 17 20 137 166 212 137 166 212 137 166 212 137 166 212 137 166 212 137 166 212 137 166 212 16 17 20 137 166 212 137 166 212 137 166 212 137 166 212 137 166 212 137 166 212 137 166 212 16 17 20 137 166 212 137 166 212 137 166 212 137 166 212 137 166 212 137 166 212 137 166 212 16 17 20 137 166 212 137 166 212 137 166 212 137 166 212 137 166 212 137 166 212 137 166 212 16 17 20 137 166 212 137 166 212 137 166 212 137 166 212 137 166 212 137 166 212 137 166 212 16 17 20 137 166 212 137 166 212 137 166 212 137 166 212 137 166 212 137 166 212 137 166 212 16 17 20 137 166 212 137 166 212 137 166 212 137 166 212 137 166 212 137 166 212 137 166 212 16 17 20 137 166 212 137 166 212 137 166 212 137 166 212 137 166 212 137 166 212 137 166 212 16 17 20 137 166 212 137 166 212 137 166 212 137 166 212 137 166 212 137 166 212 137 166 212 16 17 20 137 166 212 137 166 212 137 166 212 137 166 212 137 166 212 137 166 212 137 166 212 16 17 20 137 166 212 137 166 212 137 166 212 137 166 212 137 166 212 137 166 212 137 166 212 16 17 20 137 166 212 137 166 212 137 166 212 137 166 212 137 166 212 137 166 212 137 166 212 16 17 20 137 166 212 137 166 212 137 166 212 137 166 212 137 166 212 137 166 212 137 166 212 16 17 20 
16 17 20 137 166 212 137 166 212 137 166 212 137 166 212 137 166 212 137 166 212 137 166 212 16 17 20 137 166 212 137 166 212 137 166 212 137 166 212 137 166 212 137 166 212 137 166 212 51 56 58 137 166 212 137 166 212 137 166 212 137 166 212 137 166 212 137 166 212 137 166 212 16 17 20 137 166 212 137 166 212 137 166 212 137 166 212 137 166 212 137 166 212 137 166 212 51 56 58 137 166 212 137 166 212 137 166 212 137 166 212 137 166 212 137 166 212 137 166 212 16 17 20 137 166 212 137 166 212 137 166 212 137 166 212 137 166 212 137 166 212 137 166 212 51 56 58 137 166 212 137 166 212 137 166 212 137 166 212 137 166 212 137 166 212 137 166 212 16 17 20 137 166 212 137 166 212 137 166 212 137 166 212 137 166 212 137 166 212 137 166 212 51 56 58 137 166 212 137 166 212 137 166 212 137 166 212 137 166 212 137 166 212 137 166 212 16 17 20 137 166 212 137 166 212 137 166 212 137 166 212 137 166 212 137 166 212 137 166 212 51 56 58 137 166 212 137 166 212 137 166 212 137 166 212 137 166 212 137 166 212 137 166 212 16 17 20 137 166 212 137 166 212 137 166 212 137 166 212 137 166 212 137 166 212 137 166 212 51 56 58 137 166 212 137 166 212 137 166 212 137 166 212 137 166 212 137 166 212 137 166 212 16 17 20 137 166 212 137 166 212 137 166 212 137 166 212 137 166 212 137 166 212 137 166 212 51 56 58 137 166 212 137 166 212 137 166 212 137 166 212 137 166 212 137 166 212 137 166 212 16 17 20 137 166 212 137 166 212 137 166 212 137 166 212 137 166 212 137 166 212 137 166 212 16 17 20 
16 17 20 137 166 212 137 166 212 137 166 212 137 166 212 137 166 212 137 166 212 137 166 212 16 17 20 137 166 212 137 166 212 137 166 212 137 166 212 137 166 212 137 166 212 137 166 212 16 17 20 137 166 212 137 166 212 137 166 212 137 166 212 137 166 212 137 166 212 137 166 212 16 17 20 137 166 212 137 166 212 137 166 212 137 166 212 137 166 212 137 166 212 137 166 212 16 17 20 137 166 212 137 166 212 137 166 212 137 166 212 137 166 212 137 166 212 137 166 212 16 17 20 137 166 212 137 166 212 137 166 212 137 166 212 137 166 212 137 166 212 137 166 212 16 17 20 137 166 212 137 166 212 137 166 212 137 166 212 137 166 212 137 166 212 137 166 212 16 17 20 137 166 212 137 166 212 137 166 212 137 166 212 137 166 212 137 166 212 137 166 212 16 17 20 137 166 212 137 166 212 137 166 212 137 166 212 137 166 212 137 166 212 137 166 212 16 17 20 137 166 212 137 166 212 137 166 212 137 166 212 137 166 212 137 166 212 137 166 212 16 17 20 137 166 212 137 166 212 137 166 212 137 166 212 137 166 212 137 166 212 137 166 212 16 17 20 137 166 212 137 166 212 137 166 212 137 166 212 137 166 212 137 166 212 137 166 212 16 17 20 137 166 212 137 166 212 137 166 212 137 166 212 137 166 212 137 166 212 137 166 212 16 17 20 137 166 212 137 166 212 137 166 212 137 166 212 137 166 212 137 166 212 137 166 212 16 17 20 137 166 212 137 166 212 137 166 212 137 166 212 137 166 212 137 166 212 137 166 212 16 17 20 137 166 212 137 166 212 137 166 212 137 166 212 137 166 212 137 166 212 137 166 212 16 17 20 
16 17 20 137 166 212 137 166 212 137 166 212 137 166 212 137 166 212 137 166 212 137 166 212 16 17 20 137 166 212 137 166 212 137 166 212 137 166 212 137 166 212 137 166 212 137 166 212 51 56 58 137 166 212 137 166 212 137 166 212 137 166 212 137 166 212 137 166 212 137 166 212 16 17 20 137 166 212 137 166 212 137 166 212 137 166 212 137 166 212 137 166 212 137 166 212 51 56 58 137 166 212 137 166 212 137 166 212 137 166 212 137 166 212 137 166 212 137 166 212 16 17 20 137 166 212 137 166 212 137 166 212 137 166 212 137 166 212 137 166 212 137 166 212 51 56 58 137 166 212 137 166 212 137 166 212 137 166 212 137 166 212 137 166 212 137 166 212 16 17 20 137 166 212 137 166 212 137 166 212 137 166 212 137 166 212 137 166 212 137 166 212 51 56 58 137 166 212 137 166 212 137 166 212 137 166 212 137 166 212 137 166 212 137 166 212 16 17 20 137 166 212 137 166 212 137 166 212 137 166 212 137 166 212 137 166 212 137 166 212 51 56 58 137 166 212 137 166 212 137 166 212 137 166 212 137 166 212 137 166 212 137 166 212 16 17 20 137 166 212 137 166 212 137 166 212 137 166 212 137 166 212 137 166 212 137 166 212 51 56 58 137 166 212 137 166 212 137 166 212 137 166 212 137 166 212 137 166 212 137 166 212 16 17 20 137 166 212 137 166 212 137 166 212 137 166 212 137 166 212 137 166 212 137 166 212 51 56 58 137 166 212 137 166 212 137 166 212 137 166 212 137 166 212 137 166 212 137 166 212 16 17 20 137 166 212 137 166 212 137 166 212 137 166 212 137 166 212 137 166 212 137 166 212 16 17 20 
16 17 20 137 166 212 137 166 212 137 166 212 137 166 212 137 166 212 137 166 212 137 166 212 16 17 20 137 166 212 137 166 212 137 166 212 137 166 212 137 166 212 137 166 212 137 166 212 16 17 20 137 166 212 137 166 212 137 166 212 137 166 212 137 166 212 137 166 212 137 166 212 16 17 20 137 166 212 137 166 212 137 166 212 137 166 212 137 166 212 137 166 212 137 166 212 16 17 20 137 166 212 137 166 212 137 166 212 137 166 212 137 166 212 137 166 212 137 166 212 16 17 20 137 166 212 137 166 212 137 166 212 137 166 212 137 166 212 137 166 212 137 166 212 16 17 20 137 166 212 137 166 212 137 166 212 137 166 212 137 166 212 137 166 212 137 166 212 16 17 20 137 166 212 137 166 212 137 166 212 137 166 212 137 166 212 137 166 212 137 166 212 16 17 20 137 166 212 137 166 212 137 166 212 137 166 212 137 166 212 137 166 212 137 166 212 16 17 20 137 166 212 137 166 212 137 166 212 137 166 212 137 166 212 137 166 212 137 166 212 16 17 20 137 166 212 137 166 212 137 166 212 137 166 212 137 166 212 137 166 212 137 166 212 16 17 20 137 166 212 137 166 212 137 166 212 137 166 212 137 166 212 137 166 212 137 166 212 16 17 20 137 166 212 137 166 212 137 166 212 137 166 212 137 166 212 137 166 212 137 166 212 16 17 20 137 166 212 137 166 212 137 166 212 137 166 212 137 166 212 137 166 212 137 166 212 16 17 20 137 166 212 137 166 212 137 166 212 137 166 212 137 166 212 137 166 212 137 166 212 16 17 20 137 166 212 137 166 212 137 166 212 137 166 212 137 166 212 137 166 212 137 166 212 16 17 20 
16 17 20 137 166 212 137 166 212 137 166 212 137 166 212 137 166 212 137 166 212 137 166 212 16 17 20 137 166 212 137 166 212 137 166 212 137 166 212 137 166 212 137 166 212 137 166 212 51 56 58 137 166 212 137 166 212 137 166 212 137 166 212 137 166 212 137 166 212 137 166 212 16 17 20 137 166 212 137 166 212 137 166 212 137 166 212 137 166 212 137 166 212 137 166 212 51 56 58 137 166 212 137 166 212 137 166 212 137 166 212 137 166 212 137 166 212 137 166 212 16 17 20 137 166 212 137 166 212 137 166 212 137 166 212 137 166 212 137 166 212 137 166 212 51 56 58 137 166 212 137 166 212 137 166 212 137 166 212 137 166 212 137 166 212 137 166 212 16 17 20 137 166 212 137 166 212 137 166 212 137 166 212 137 166 212 137 166 212 137 166 212 51 56 58 137 166 212 137 166 212 137 166 212 137 166 212 137 166 212 137 166 212 137 166 212 16 17 20 137 166 212 137 166 212 137 166 212 137 166 212 137 166 212 137 166 212 137 166 212 51 56 58 137 166 212 137 166 212 137 166 212 137 166 212 137 166 212 137 166 212 137 166 212 16 17 20 137 166 212 137 166 212 137 166 212 137 166 212 137 166 212 137 166 212 137 166 212 51 56 58 137 166 212 137 166 212 137 166 212 137 166 212 137 166 212 137 166 212 137 166 212 16 17 20 137 166 212 137 166 212 137 166 212 137 166 212 137 166 212 137 166 212 137 166 212 51 56 58 137 166 212 137 166 212 137 166 212 137 166 212 137 166 212 137 166 212 137 166 212 16 17 20 137 166 212 137 166 212 137 166 212 137 166 212 137 166 212 137 166 212 137 166 212 16 17 20 
16 17 20 137 166 212 137 166 212 137 166 212 137 166 212 137 166 212 137 166 212 137 166 212 16 17 20 137 166 212 137 166 212 137 166 212 137 166 212 137 166 212 137 166 212 137 166 212 16 17 20 137 166 212 137 166 212 137 166 212 137 166 212 137 166 212 137 166 212 137 166 212 16 17 20 137 166 212 137 166 212 137 166 212 137 166 212 137 166 212 137 166 212 137 166 212 16 17 20 137 166 212 137 166 212 137 166 212 137 166 212 137 166 212 137 166 212 137 166 212 16 17 20 137 166 212 137 166 212 137 166 212 137 166 212 137 166 212 137 166 212 137 166 212 16 17 20 137 166 212 137 166 212 137 166 212 137 166 212 137 166 212 137 166 212 137 166 212 16 17 20 137 166 212 137 166 212 137 166 212 137 166 212 137 166 212 137 166 212 137 166 212 16 17 20 137 166 212 137 166 212 137 166 212 137 166 212 137 166 212 137 166 212 137 166 212 16 17 20 137 166 212 137 166 212 137 166 212 137 166 212 137 166 212 137 166 212 137 166 212 16 17 20 137 166 212 137 166 212 137 166 212 137 166 212 137 166 212 137 166 212 137 166 212 16 17 20 137 166 212 137 166 212 137 166 212 137 166 212 137 166 212 137 166 212 137 166 212 16 17 20 137 166 212 137 166 212 137 166 212 137 166 212 137 166 212 137 166 212 137 166 212 16 17 20 137 166 212 137 166 212 137 166 212 137 166 212 137 166 212 137 166 212 137 166 212 16 17 20 137 166 212 137 166 212 137 166 212 137 166 212 137 166 212 137 166 212 137 166 212 16 17 20 137 166 212 137 166 212 137 166 212 137 166 212 137 166 212 137 166 212 137 166 212 16 17 20 
16 17 20 137 166 212 137 166 212 137 166 212 137 166 212 137 166 212 137 166 212 137 166 212 16 17 20 137 166 212 137 166 212 137 166 212 137 166 212 137 166 212 137 166 212 137 166 212 51 56 58 137 166 212 137 166 212 137 166 212 137 166 212 137 166 212 137 166 212 137 166 212 16 17 20 137 166 212 137 166 212 137 166 212 137 166 212 137 166 212 137 166 212 137 166 212 51 56 58 137 166 212 137 166 212 137 166 212 137 166 212 137 166 212 137 166 212 137 166 212 16 17 20 137 166 212 137 166 212 137 166 212 137 166 212 137 166 212 137 166 212 137 166 212 51 56 58 137 166 212 137 166 212 137 166 212 137 166 212 137 166 212 137 166 212 137 166 212 16 17 20 137 166 212 137 166 212 137 166 212 137 166 212 137 166 212 137 166 212 137 166 212 51 56 58 137 166 212 137 166 212 137 166 212 137 166 212 137 166 212 137 166 212 137 166 212 16 17 20 137 166 212 137 166 212 137 166 212 137 166 212 137 166 212 137 166 212 137 166 212 51 56 58 137 166 212 137 166 212 137 166 212 137 166 212 137 166 212 137 166 212 137 166 212 16 17 20 137 166 212 137 166 212 137 166 212 137 166 212 137 166 212 137 166 212 137 166 212 51 56 58 137 166 212 137 166 212 137 166 212 137 166 212 137 166 212 137 166 212 137 166 212 16 17 20 137 166 212 137 166 212 137 166 212 137 166 212 137 166 212 137 166 212 137 166 212 51 56 58 137 166 212 137 166 212 137 166 212 137 166 212 137 166 212 137 166 212 137 166 212 16 17 20 137 166 212 137 166 212 137 166 212 137 166 212 137 166 212 137 166 212 137 166 212 16 17 20 
16 17 20 137 166 212 137 166 212 137 166 212 137 166 212 137 166 212 137 166 212 137 166 212 16 17 20 137 166 212 137 166 212 137 166 212 137 166 212 137 166 212 137 166 212 137 166 212 16 17 20 137 166 212 137 166 212 137 166 212 137 166 212 137 166 212 137 166 212 137 166 212 16 17 20 137 166 212 137 166 212 137 166 212 137 166 212 137 166 212 137 166 212 137 166 212 16 17 20 137 166 212 137 166 212 137 166 212 137 166 212 137 166 212 137 166 212 137 166 212 16 17 20 137 166 212 137 166 212 137 166 212 137 166 212 137 166 212 137 166 212 137 166 212 16 17 20 137 166 212 137 166 212 137 166 212 137 166 212 137 166 212 137 166 212 137 166 212 16 17 20 137 166 212 137 166 212 137 166 212 137 166 212 137 166 212 137 166 212 137 166 212 16 17 20 137 166 212 137 166 212 137 166 212 137 166 212 137 166 212 137 166 212 137 166 212 16 17 20 137 166 212 137 166 212 137 166 212 137 166 212 137 166 212 137 166 212 137 166 212 16 17 20 137 166 212 137 166 212 137 166 212 137 166 212 137 166 212 137 166 212 137 166 212 16 17 20 137 166 212 137 166 212 137 166 212 137 166 212 137 166 212 137 166 212 137 166 212 16 17 20 137 166 212 137 166 212 137 166 212 137 166 212 137 166 212 137 166 212 137 166 212 16 17 20 137 166 212 137 166 212 137 166 212 137 166 212 137 166 212 137 166 212 137 166 212 16 17 20 137 166 212 137 166 212 137 166 212 137 166 212 137 166 212 137 166 212 137 166 212 16 17 20 137 166 212 137 166 212 137 166 212 137 166 212 137 166 212 137 166 212 137 166 212 16 17 20 
16 17 20 137 166 212 137 166 212 137 166 212 137 166 212 137 166 212 137 166 212 137 166 212 16 17 20 137 166 212 137 166 212 137 166 212 137 166 212 137 166 212 137 166 212 137 166 212 51 56 58 137 166 212 137 166 212 137 166 212 137 166 212 137 166 212 137 166 212 137 166 212 16 17 20 137 166 212 137 166 212 137 166 212 137 166 212 137 166 212 137 166 212 137 166 212 51 56 58 137 166 212 137 166 212 137 166 212 137 166 212 137 166 212 137 166 212 137 166 212 16 17 20 137 166 212 137 166 212 137 166 212 137 166 212 137 166 212 137 166 212 137 166 212 51 56 58 137 166 212 137 166 212 137 166 212 137 166 212 137 166 212 137 166 212 137 166 212 16 17 20 137 166 212 137 166 212 137 166 212 137 166 212 137 166 212 137 166 212 137 166 212 51 56 58 137 166 212 137 166 212 137 166 212 137 166 212 137 166 212 137 166 212 137 166 212 16 17 20 137 166 212 137 166 212 137 166 212 137 166 212 137 166 212 137 166 212 137 166 212 51 56 58 137 166 212 137 166 212 137 166 212 137 166 212 137 166 212 137 166 212 137 166 212 16 17 20 137 166 212 137 166 212 137 166 212 137 166 212 137 166 212 137 166 212 137 166 212 51 56 58 137 166 212 137 166 212 137 166 212 137 166 212 137 166 212 137 166 212 137 166 212 16 17 20 137 166 212 137 166 212 137 166 212 137 166 212 137 166 212 137 166 212 137 166 212 51 56 58 137 166 212 137 166 212 137 166 212 137 166 212 137 166 212 137 166 212 137 166 212 16 17 20 137 166 212 137 166 212 137 166 212 137 166 212 137 166 212 137 166 212 137 166 212 16 17 20 
16 17 20 193 196 196 193 196 196 193 196 196 193 196 196 193 196 196 193 196 196 193 196 196 16 17 20 193 196 196 193 196 196 193 196 196 193 196 196 193 196 196 193 196 196 193 196 196 16 17 20 200 98 15 200 98 15 200 98 15 200 98 15 200 98 15 200 98 15 200 98 15 16 17 20 200 98 15 200 98 15 200 98 15 200 98 15 200 98 15 200 98 15 200 98 15 16 17 20 157 56 148 157 56 148 157 56 148 157 56 148 157 56 148 157 56 148 157 56 148 16 17 20 157 56 148 157 56 148 157 56 148 157 56 148 157 56 148 157 56 148 157 56 148 16 17 20 48 145 180 48 145 180 48 145 180 48 145 180 48 145 180 48 145 180 48 145 180 16 17 20 48 145 180 48 145 180 48 145 180 48 145 180 48 145 180 48 145 180 48 145 180 16 17 20 206 165 32 206 165 32 206 165 32 206 165 32 206 165 32 206 165 32 206 165 32 16 17 20 206 165 32 206 165 32 206 165 32 206 165 32 206 165 32 206 165 32 206 165 32 16 17 20 93 153 20 93 153 20 93 153 20 93 153 20 93 153 20 93 153 20 93 153 20 16 17 20 93 153 20 93 153 20 93 153 20 93 153 20 93 153 20 93 153 20 93 153 20 16 17 20 197 117 143 197 117 143 197 117 143 197 117 143 197 117 143 197 117 143 197 117 143 16 17 20 197 117 143 197 117 143 197 117 143 197 117 143 197 117 143 197 117 143 197 117 143 16 17 20 51 56 58 51 56 58 51 56 58 51 56 58 51 56 58 51 56 58 51 56 58 16 17 20 51 56 58 51 56 58 51 56 58 51 56 58 51 56 58 51 56 58 51 56 58 16 17 20 
