P3
56 13
255
28 0 0 36 33 32 80 48 58 28 0 0 36 33 32 80 48 58 28 0 0 36 33 32 80 48 58 28 0 0 36 33 32 80 48 58 28 0 0 36 33 32 80 48 58 28 0 0 36 33 32 80 48 58 28 0 0 36 33 32 80 48 58 28 0 0 36 33 32 80 48 58 28 0 0 36 33 32 80 48 58 28 0 0 36 33 32 80 48 58 28 0 0 36 33 32 80 48 58 28 0 0 36 33 32 80 48 58 28 0 0 36 33 32 80 48 58 28 0 0 36 33 32 80 48 58 28 0 0 36 33 32 80 48 58 28 0 0 36 33 32 80 48 58 32 16 32 32 16 32 32 16 32 32 16 32 32 16 32 32 16 32 6 7 8 6 7 8 
17 231 231 32 16 32 31 40 3 54 13 11 32 16 32 31 40 3 54 13 11 32 16 32 31 40 3 54 13 11 32 16 32 31 40 3 54 13 11 32 16 32 31 40 3 54 13 11 32 16 32 31 40 3 54 13 11 32 16 32 31 40 3 54 13 11 32 16 32 31 40 3 54 13 11 32 16 32 31 40 3 54 13 11 32 16 32 31 40 3 54 13 11 32 16 32 31 40 3 54 13 11 32 16 32 31 40 3 54 13 11 32 16 32 31 40 3 54 13 11 32 16 32 31 40 3 54 13 11 32 16 32 31 40 3 54 13 11 32 16 32 31 40 3 32 16 32 32 16 32 32 16 32 32 16 32 32 16 32 32 16 32 6 7 8 6 7 8 
32 16 32 32 16 32 32 16 32 28 0 0 32 16 32 68 0 8 28 0 0 32 16 32 67 0 8 28 0 0 32 16 32 67 0 8 28 0 0 32 16 32 65 0 8 28 0 0 32 16 32 65 0 8 28 0 0 32 16 32 65 0 8 28 0 0 32 16 32 65 0 8 28 0 0 32 16 32 64 0 8 28 0 0 32 16 32 64 0 8 28 0 0 32 16 32 64 0 8 28 0 0 32 16 32 64 0 8 28 0 0 32 16 32 64 0 8 28 0 0 32 16 32 64 0 8 28 0 0 32 16 32 64 0 8 28 0 0 32 16 32 64 0 8 28 0 0 32 16 32 32 16 32 29 0 0 29 0 0 29 0 0 6 7 8 6 7 8 
32 16 32 32 16 32 64 0 8 73 39 25 32 16 32 64 0 8 73 39 25 32 16 32 64 0 8 73 39 25 32 16 32 64 0 8 73 39 25 32 16 32 64 0 8 73 39 25 32 16 32 64 0 8 73 39 25 32 16 32 64 0 8 73 39 25 32 16 32 64 0 8 73 39 25 32 16 32 75 40 25 73 39 25 32 16 32 75 40 25 73 39 25 32 16 32 75 40 25 73 39 25 32 16 32 75 40 25 73 39 25 32 16 32 75 40 25 73 39 25 32 16 32 67 0 8 73 39 25 32 16 32 75 40 25 73 39 25 32 16 32 75 40 25 73 39 25 32 16 32 29 0 0 21 23 24 21 23 24 21 23 24 6 7 8 6 7 8 
57 57 57 29 0 0 29 0 0 28 0 0 29 0 0 29 0 0 28 0 0 29 0 0 29 0 0 28 0 0 29 0 0 29 0 0 28 0 0 29 0 0 29 0 0 28 0 0 29 0 0 29 0 0 28 0 0 29 0 0 29 0 0 28 0 0 29 0 0 29 0 0 28 0 0 29 0 0 29 0 0 28 0 0 29 0 0 29 0 0 28 0 0 29 0 0 29 0 0 28 0 0 29 0 0 29 0 0 28 0 0 29 0 0 29 0 0 28 0 0 29 0 0 29 0 0 28 0 0 29 0 0 29 0 0 28 0 0 29 0 0 29 0 0 28 0 0 29 0 0 29 0 0 29 0 0 29 0 0 29 0 0 6 7 8 6 7 8 
38 63 8 20 22 23 17 19 53 82 66 13 20 22 23 20 22 23 82 66 13 20 22 23 20 22 23 82 66 13 20 22 23 20 22 23 82 66 13 20 22 23 38 63 8 82 66 13 20 22 23 20 22 23 82 66 13 20 22 23 6 7 8 82 66 13 20 22 23 20 22 23 82 66 13 20 22 23 6 7 8 82 66 13 20 22 23 20 22 23 82 66 13 20 22 23 28 37 9 82 66 13 20 22 23 6 7 8 82 66 13 20 22 23 41 14 59 82 66 13 20 22 23 20 22 23 82 66 13 20 22 23 54 13 11 82 66 13 20 22 23 39 23 13 82 66 13 20 22 23 20 22 23 20 22 23 20 22 23 20 22 23 6 7 8 6 7 8 
32 16 32 32 16 32 32 16 32 28 0 0 32 16 32 32 16 32 28 0 0 32 16 32 32 16 32 28 0 0 32 16 32 32 16 32 28 0 0 32 16 32 32 16 32 28 0 0 32 16 32 32 16 32 28 0 0 32 16 32 32 16 32 28 0 0 32 16 32 32 16 32 28 0 0 32 16 32 32 16 32 28 0 0 32 16 32 32 16 32 28 0 0 32 16 32 32 16 32 28 0 0 32 16 32 32 16 32 28 0 0 32 16 32 32 16 32 28 0 0 32 16 32 32 16 32 28 0 0 32 16 32 32 16 32 28 0 0 32 16 32 32 16 32 28 0 0 32 16 32 32 16 32 29 0 0 29 0 0 29 0 0 6 7 8 6 7 8 
32 16 32 32 16 32 74 39 25 17 19 53 32 16 32 79 42 27 83 67 13 32 16 32 74 39 25 54 13 11 32 16 32 76 40 26 83 67 13 32 16 32 76 40 26 83 67 13 32 16 32 76 40 26 83 67 13 32 16 32 74 39 25 6 7 8 32 16 32 79 42 27 83 67 13 32 16 32 74 39 25 6 7 8 32 16 32 76 40 26 83 67 13 32 16 32 74 39 25 28 36 9 32 16 32 74 39 25 6 7 8 32 16 32 74 39 25 40 14 58 32 16 32 74 39 25 6 7 8 32 16 32 74 39 25 54 13 11 32 16 32 74 39 25 38 23 13 32 16 32 29 0 0 20 23 24 21 23 24 21 23 24 6 7 8 6 7 8 
57 57 57 28 0 0 28 0 0 28 0 0 28 0 0 28 0 0 28 0 0 28 0 0 28 0 0 28 0 0 28 0 0 28 0 0 28 0 0 28 0 0 28 0 0 57 57 57 28 0 0 28 0 0 28 0 0 28 0 0 28 0 0 28 0 0 28 0 0 28 0 0 28 0 0 28 0 0 28 0 0 28 0 0 28 0 0 28 0 0 57 57 57 28 0 0 28 0 0 28 0 0 28 0 0 28 0 0 28 0 0 28 0 0 28 0 0 28 0 0 28 0 0 28 0 0 28 0 0 28 0 0 28 0 0 57 57 57 28 0 0 28 0 0 28 0 0 28 0 0 28 0 0 28 0 0 29 0 0 29 0 0 6 7 8 6 7 8 
37 62 8 20 22 23 17 19 53 20 22 23 20 22 23 20 22 23 20 22 23 20 22 23 54 13 11 20 22 23 20 22 23 20 22 23 20 22 23 20 22 23 20 22 23 37 62 8 20 22 23 20 22 23 20 22 23 20 22 23 6 7 8 20 22 23 20 22 23 20 22 23 20 22 23 20 22 23 6 7 8 20 22 23 20 22 23 20 22 23 37 62 8 20 22 23 28 36 9 20 22 23 20 22 23 6 7 8 20 22 23 20 22 23 40 14 58 20 22 23 20 22 23 6 7 8 20 22 23 20 22 23 54 13 11 37 62 8 20 22 23 38 23 13 20 22 23 20 22 23 20 22 23 20 22 23 20 22 23 20 22 23 6 7 8 6 7 8 
32 16 32 32 16 32 32 16 32 32 16 32 32 16 32 32 16 32 32 16 32 32 16 32 32 16 32 32 16 32 32 16 32 32 16 32 32 16 32 32 16 32 32 16 32 32 16 32 32 16 32 32 16 32 32 16 32 32 16 32 32 16 32 32 16 32 32 16 32 32 16 32 32 16 32 32 16 32 32 16 32 32 16 32 32 16 32 32 16 32 32 16 32 32 16 32 32 16 32 32 16 32 32 16 32 32 16 32 32 16 32 32 16 32 32 16 32 32 16 32 32 16 32 32 16 32 32 16 32 32 16 32 32 16 32 32 16 32 32 16 32 32 16 32 32 16 32 32 16 32 21 23 24 29 0 0 29 0 0 29 0 0 6 7 8 6 7 8 
32 16 32 32 16 32 32 16 32 32 16 32 32 16 32 32 16 32 32 16 32 32 16 32 32 16 32 32 16 32 32 16 32 32 16 32 32 16 32 32 16 32 32 16 32 32 16 32 32 16 32 32 16 32 32 16 32 32 16 32 32 16 32 32 16 32 32 16 32 32 16 32 32 16 32 32 16 32 32 16 32 32 16 32 32 16 32 32 16 32 32 16 32 32 16 32 32 16 32 32 16 32 32 16 32 32 16 32 32 16 32 32 16 32 32 16 32 32 16 32 32 16 32 32 16 32 32 16 32 32 16 32 32 16 32 32 16 32 32 16 32 32 16 32 32 16 32 32 16 32 32 16 32 21 23 24 21 23 24 21 23 24 6 7 8 6 7 8 
32 16 32 32 16 32 32 16 32 32 16 32 32 16 32 32 16 32 32 16 32 32 16 32 32 16 32 32 16 32 32 16 32 32 16 32 32 16 32 32 16 32 32 16 32 32 16 32 32 16 32 32 16 32 32 16 32 32 16 32 32 16 32 32 16 32 32 16 32 32 16 32 32 16 32 32 16 32 32 16 32 32 16 32 32 16 32 32 16 32 32 16 32 32 16 32 32 16 32 32 16 32 32 16 32 32 16 32 32 16 32 32 16 32 32 16 32 32 16 32 32 16 32 32 16 32 32 16 32 32 16 32 32 16 32 32 16 32 32 16 32 32 16 32 32 16 32 32 16 32 32 16 32 32 16 32 32 16 32 32 16 32 6 7 8 6 7 8 
