# Blender v2.79 (sub 0) OBJ File: ''
# www.blender.org
mtllib RepeaterModel.mtl
o virtexMap
v 0.500000 -0.200000 0.502961
v 0.500000 -0.500000 0.502961
v 0.500000 -0.500000 -0.497039
v 0.500000 -0.200000 -0.497039
v -0.500000 -0.200000 -0.497039
v -0.500000 -0.500000 -0.497039
v -0.500000 -0.500000 0.502961
v -0.500000 -0.200000 0.502961
v 0.077106 -0.176116 0.261567
v 0.077106 -0.200000 0.261567
v 0.077106 -0.200000 -0.397039
v 0.077106 -0.176116 -0.397039
v -0.088601 -0.176116 -0.397039
v -0.088601 -0.200000 -0.397039
v -0.088601 -0.200000 0.261567
v -0.088601 -0.176116 0.261567
v 0.064244 -0.073974 0.420683
v 0.064244 -0.202463 0.420683
v 0.064244 -0.202463 0.292195
v 0.064244 -0.073974 0.292195
v -0.064244 -0.073974 0.292195
v -0.064244 -0.202463 0.292195
v -0.064244 -0.202463 0.420683
v -0.064244 -0.073974 0.420683
v 0.064244 -0.073974 0.229033
v 0.064244 -0.202463 0.229033
v 0.064244 -0.202463 0.100545
v 0.064244 -0.073974 0.100545
v -0.064244 -0.073974 0.100545
v -0.064244 -0.202463 0.100545
v -0.064244 -0.202463 0.229033
v -0.064244 -0.073974 0.229033
v 0.077339 0.078388 0.245300
v 0.077339 -0.076290 0.245300
v 0.077339 -0.076290 0.090622
v 0.077339 0.078388 0.090622
v -0.077339 0.078388 0.090622
v -0.077339 -0.076290 0.090622
v -0.077339 -0.076290 0.245300
v -0.077339 0.078388 0.245300
v 0.077339 0.078388 0.438206
v 0.077339 -0.076290 0.438206
v 0.077339 -0.076290 0.283528
v 0.077339 0.078388 0.283528
v -0.077339 0.078388 0.283528
v -0.077339 -0.076290 0.283528
v -0.077339 -0.076290 0.438206
v -0.077339 0.078388 0.438206
vn 1.0000 -0.0000 0.0000
vn -1.0000 0.0000 0.0000
vn 0.0000 0.0000 1.0000
vn 0.0000 0.0000 -1.0000
vn 0.0000 1.0000 0.0000
vn 0.0000 -1.0000 -0.0000
usemtl redstone_Tile:0
s off
f 1//1 2//1 3//1 4//1
f 5//2 6//2 7//2 8//2
f 8//3 7//3 2//3 1//3
f 4//4 3//4 6//4 5//4
f 4//5 5//5 8//5 1//5
f 3//6 2//6 7//6 6//6
usemtl redstone_Off:0
f 9//1 10//1 11//1 12//1
f 13//2 14//2 15//2 16//2
f 16//3 15//3 10//3 9//3
f 12//4 11//4 14//4 13//4
f 12//5 13//5 16//5 9//5
f 33//1 34//1 35//1 36//1
f 37//2 38//2 39//2 40//2
f 40//3 39//3 34//3 33//3
f 36//4 35//4 38//4 37//4
f 36//5 37//5 40//5 33//5
f 35//6 34//6 39//6 38//6
f 41//1 42//1 43//1 44//1
f 45//2 46//2 47//2 48//2
f 48//3 47//3 42//3 41//3
f 44//4 43//4 46//4 45//4
f 44//5 45//5 48//5 41//5
f 43//6 42//6 47//6 46//6
usemtl generic_Wood:0
f 17//1 18//1 19//1 20//1
f 21//2 22//2 23//2 24//2
f 24//3 23//3 18//3 17//3
f 20//4 19//4 22//4 21//4
f 20//5 21//5 24//5 17//5
f 19//6 18//6 23//6 22//6
f 25//1 26//1 27//1 28//1
f 29//2 30//2 31//2 32//2
f 32//3 31//3 26//3 25//3
f 28//4 27//4 30//4 29//4
f 28//5 29//5 32//5 25//5
f 27//6 26//6 31//6 30//6
